name rise49.5252peak65.1548fall88.8305.mot
datacolumns 19
datarows 23
range 3.73165100000000 3.76831400000000
endheader
time	ground_force1_vx	ground_force1_vy	ground_force1_vz	ground_force1_px	ground_force1_py	ground_force1_pz	ground_force2_vx	ground_force2_vy	ground_force2_vz	ground_force2_px	ground_force2_py	ground_force2_pz	ground_torque1_x	ground_torque1_y	ground_torque1_z	ground_torque2_x	ground_torque2_y	ground_torque2_z	
3.73165100000000	-42.99409500000000	813.88157799999999	55.00869300000000	0.15803300000000	0.00000000000000	0.12284900000000	-11.33735000000000	64.78092900000000	8.83753900000000	0.40673200000000	0.00000000000000	-0.05398600000000	0.00000000000000	27.89108700000000	0.00000000000000	0.00000000000000	6.69646400000000	0.00000000000000	
3.73331700000000	-43.76367300000000	812.25414100000000	54.91520200000000	0.15712100000000	0.00000000000000	0.12277200000000	-11.76958300000000	70.59417700000000	9.39305500000000	0.40796100000000	0.00000000000000	-0.05430200000000	0.00000000000000	27.86982100000000	0.00000000000000	0.00000000000000	7.15312500000000	0.00000000000000	
3.73497900000000	-44.55234900000000	810.49867600000005	54.80025500000000	0.15620800000000	0.00000000000000	0.12269300000000	-12.04886500000000	76.16089700000001	9.86683100000000	0.40913400000000	0.00000000000000	-0.05460000000000	0.00000000000000	27.84780100000000	0.00000000000000	0.00000000000000	7.55396300000000	0.00000000000000	
3.73664500000000	-45.35982500000000	808.61261500000001	54.66341300000000	0.15529200000000	0.00000000000000	0.12261300000000	-12.18110700000000	81.49037199999999	10.26076100000000	0.41026600000000	0.00000000000000	-0.05488200000000	0.00000000000000	27.82507700000000	0.00000000000000	0.00000000000000	7.90021900000000	0.00000000000000	
3.73831700000000	-46.18572400000000	806.59339699999998	54.50427100000000	0.15437700000000	0.00000000000000	0.12253100000000	-12.17689100000000	86.61078300000000	10.57985600000000	0.41137000000000	0.00000000000000	-0.05514900000000	0.00000000000000	27.80169200000000	0.00000000000000	0.00000000000000	8.19545100000000	0.00000000000000	
3.73997600000000	-47.02958200000000	804.43847300000004	54.32245800000000	0.15346100000000	0.00000000000000	0.12244700000000	-12.04994800000000	91.56418300000000	10.83132900000000	0.41245800000000	0.00000000000000	-0.05540300000000	0.00000000000000	27.77768000000000	0.00000000000000	0.00000000000000	8.44486600000000	0.00000000000000	
3.74165300000000	-47.89085600000000	802.14530900000000	54.11764300000000	0.15254700000000	0.00000000000000	0.12236100000000	-11.81565600000000	96.40120100000000	11.02366200000000	0.41353700000000	0.00000000000000	-0.05564400000000	0.00000000000000	27.75306400000000	0.00000000000000	0.00000000000000	8.65463600000000	0.00000000000000	
3.74331500000000	-48.76891700000000	799.71139600000004	53.88953200000000	0.15163600000000	0.00000000000000	0.12227300000000	-11.48965900000000	101.17595700000000	11.16572700000000	0.41461400000000	0.00000000000000	-0.05587400000000	0.00000000000000	27.72785700000000	0.00000000000000	0.00000000000000	8.83125600000000	0.00000000000000	
3.74498400000000	-49.66305400000000	797.13425800000005	53.63787100000000	0.15072800000000	0.00000000000000	0.12218300000000	-11.08670800000000	105.94157000000000	11.26603600000000	0.41569400000000	0.00000000000000	-0.05609200000000	0.00000000000000	27.70205900000000	0.00000000000000	0.00000000000000	8.98098200000000	0.00000000000000	
3.74664800000000	-50.57246900000000	794.41145700000004	53.36244800000000	0.14982500000000	0.00000000000000	0.12209000000000	-10.61976600000000	110.74649500000000	11.33213800000000	0.41678300000000	0.00000000000000	-0.05630100000000	0.00000000000000	27.67565700000000	0.00000000000000	0.00000000000000	9.10938400000000	0.00000000000000	
3.74831400000000	-51.49628300000000	791.54060100000004	53.06309600000000	0.14892700000000	0.00000000000000	0.12199600000000	-10.09941000000000	115.63183400000000	11.37020100000000	0.41788300000000	0.00000000000000	-0.05650100000000	0.00000000000000	27.64862700000000	0.00000000000000	0.00000000000000	9.22102900000000	0.00000000000000	
3.74998000000000	-52.43353100000000	788.51935100000003	52.73969000000000	0.14803500000000	0.00000000000000	0.12190000000000	-9.53352400000000	120.62966000000000	11.38477100000000	0.41899500000000	0.00000000000000	-0.05669300000000	0.00000000000000	27.62092600000000	0.00000000000000	0.00000000000000	9.31929300000000	0.00000000000000	
3.75164800000000	-53.38316700000000	785.34543299999996	52.39215000000000	0.14715100000000	0.00000000000000	0.12180100000000	-8.92724300000000	125.76228600000000	11.37869600000000	0.42012200000000	0.00000000000000	-0.05687600000000	0.00000000000000	27.59250000000000	0.00000000000000	0.00000000000000	9.40629200000000	0.00000000000000	
3.75331600000000	-54.34405900000000	782.01664100000005	52.02044300000000	0.14627600000000	0.00000000000000	0.12170000000000	-8.28312500000000	131.04237400000000	11.35319000000000	0.42126400000000	0.00000000000000	-0.05705300000000	0.00000000000000	27.56327700000000	0.00000000000000	0.00000000000000	9.48292000000000	0.00000000000000	
3.75497800000000	-55.31499600000000	778.53084600000000	51.62458500000000	0.14540900000000	0.00000000000000	0.12159600000000	-7.60147600000000	136.47372400000000	11.30800800000000	0.42242100000000	0.00000000000000	-0.05722300000000	0.00000000000000	27.53317100000000	0.00000000000000	0.00000000000000	9.54896900000000	0.00000000000000	
3.75664600000000	-56.29468300000000	774.88600799999995	51.20463500000000	0.14455300000000	0.00000000000000	0.12149100000000	-6.88080000000000	142.05254199999999	11.24170200000000	0.42359200000000	0.00000000000000	-0.05738600000000	0.00000000000000	27.50207600000000	0.00000000000000	0.00000000000000	9.60330700000000	0.00000000000000	
3.75831900000000	-57.28174800000000	771.08017800000005	50.76070500000000	0.14370700000000	0.00000000000000	0.12138200000000	-6.11829400000000	147.76902899999999	11.15191800000000	0.42477700000000	0.00000000000000	-0.05754400000000	0.00000000000000	27.46987200000000	0.00000000000000	0.00000000000000	9.64409400000000	0.00000000000000	
3.75998300000000	-58.27473900000000	767.11151099999995	50.29295100000000	0.14287300000000	0.00000000000000	0.12127200000000	-5.31035800000000	153.60909000000001	11.03570800000000	0.42597400000000	0.00000000000000	-0.05769700000000	0.00000000000000	27.43642000000000	0.00000000000000	0.00000000000000	9.66901000000000	0.00000000000000	
3.76165200000000	-59.27212500000000	762.97826899999995	49.80158000000000	0.14205100000000	0.00000000000000	0.12115900000000	-4.45307500000000	159.55603199999999	10.88983400000000	0.42718000000000	0.00000000000000	-0.05784500000000	0.00000000000000	27.40156400000000	0.00000000000000	0.00000000000000	9.67547500000000	0.00000000000000	
3.76331400000000	-60.27230200000000	758.67883500000005	49.28684800000000	0.14124200000000	0.00000000000000	0.12104400000000	-3.54263400000000	165.59211300000001	10.71103900000000	0.42839500000000	0.00000000000000	-0.05798900000000	0.00000000000000	27.36513200000000	0.00000000000000	0.00000000000000	9.66085300000000	0.00000000000000	
3.76497900000000	-61.27359300000000	754.21171400000003	48.74905600000000	0.14044600000000	0.00000000000000	0.12092600000000	-2.57566900000000	171.69987000000000	10.49626800000000	0.42961400000000	0.00000000000000	-0.05812900000000	0.00000000000000	27.32693100000000	0.00000000000000	0.00000000000000	9.62262300000000	0.00000000000000	
3.76664700000000	-62.27424800000000	749.57554700000003	48.18855700000000	0.13966300000000	0.00000000000000	0.12080600000000	-1.54950900000000	177.86316400000001	10.24284900000000	0.43083600000000	0.00000000000000	-0.05826500000000	0.00000000000000	27.28675500000000	0.00000000000000	0.00000000000000	9.55851100000000	0.00000000000000	
3.76831400000000	-63.27245100000000	744.76911299999995	47.60574900000000	0.13889500000000	0.00000000000000	0.12068400000000	-0.46234700000000	184.06792300000001	9.94860600000000	0.43205800000000	0.00000000000000	-0.05839800000000	0.00000000000000	27.24437900000000	0.00000000000000	0.00000000000000	9.46658600000000	0.00000000000000	
